<svg width="6" height="10" viewBox="0 0 6 10" fill="none" xmlns="http://www.w3.org/2000/svg">
<path d="M1.81263 3.648C2.26063 3.552 2.67263 3.504 3.04863 3.504C3.49663 3.504 3.89263 3.57 4.23663 3.702C4.58063 3.834 4.86663 4.016 5.09463 4.248C5.32663 4.48 5.50063 4.754 5.61663 5.07C5.73663 5.386 5.79663 5.73 5.79663 6.102C5.79663 6.558 5.71663 6.97 5.55663 7.338C5.40063 7.706 5.18263 8.022 4.90263 8.286C4.62663 8.546 4.30063 8.746 3.92463 8.886C3.54863 9.026 3.14263 9.096 2.70663 9.096C2.45463 9.096 2.21263 9.07 1.98063 9.018C1.74863 8.97 1.53063 8.904 1.32663 8.82C1.12663 8.736 0.940625 8.64 0.768625 8.532C0.596625 8.424 0.444625 8.31 0.312625 8.19L0.642625 7.734C0.714625 7.63 0.808625 7.578 0.924625 7.578C1.00463 7.578 1.09463 7.61 1.19463 7.674C1.29463 7.734 1.41663 7.802 1.56063 7.878C1.70463 7.954 1.87263 8.024 2.06463 8.088C2.26063 8.148 2.49263 8.178 2.76063 8.178C3.06063 8.178 3.33063 8.13 3.57063 8.034C3.81063 7.938 4.01663 7.802 4.18863 7.626C4.36063 7.446 4.49263 7.232 4.58463 6.984C4.67663 6.736 4.72263 6.458 4.72263 6.15C4.72263 5.882 4.68263 5.64 4.60263 5.424C4.52663 5.208 4.40863 5.024 4.24863 4.872C4.09263 4.72 3.89663 4.602 3.66063 4.518C3.42463 4.434 3.14863 4.392 2.83263 4.392C2.61663 4.392 2.39063 4.41 2.15463 4.446C1.92263 4.482 1.68463 4.54 1.44063 4.62L0.768625 4.422L1.45863 0.401999H5.53263V0.87C5.53263 1.022 5.48463 1.148 5.38863 1.248C5.29663 1.344 5.13663 1.392 4.90863 1.392H2.20863L1.81263 3.648Z" fill="white"/>
</svg>
